<?xml version="1.0" encoding="utf-8"?><svg xmlns="http://www.w3.org/2000/svg" xmlns:xlink="http://www.w3.org/1999/xlink"  preserveAspectRatio="xMidYMid" viewBox="0 0 1597 746" style="z-index:1;margin-right:-2px;display:block;background-repeat-y:initial;background-repeat-x:initial;background-color:rgb(153, 204, 255);animation-play-state:paused" ><g transform="translate(798.5,373) scale(-1,1) translate(-798.5,-373)" style="transform:matrix(-1, 0, 0, 1, 1597, 0);animation-play-state:paused" ><defs style="animation-play-state:paused" ><linearGradient id="lg-0.47947204401802823" x1="0" x2="0" y1="0" y2="1" style="animation-play-state:paused" ><stop stop-color="#3184ce" offset="0" style="animation-play-state:paused" ></stop>

  
<stop stop-color="#e9f6ff" offset="1" style="animation-play-state:paused" ></stop></linearGradient></defs>


<rect x="0" y="0" width="1597" height="746" fill="url(#lg-0.47947204401802823)" style="animation-play-state:paused" ></rect>
<circle cx="0" cy="222.4739731278555" r="146.27168906012042" fill="#91cbf0" transform="matrix(1,0,0,1,0,0)" style="transform:matrix(1, 0, 0, 1, 0, 0);animation-play-state:paused" ></circle>
<circle cx="146.27168906012042" cy="283.6267794731481" r="116.68589952686766" fill="#91cbf0" transform="matrix(1,0,0,1,-0.005429701879620552,0)" style="transform:matrix(1, 0, 0, 1, -0.0054297, 0);animation-play-state:paused" ></circle>
<circle cx="262.9575885869881" cy="325.66486391632316" r="89.87711170938361" fill="#91cbf0" transform="matrix(1,0,0,1,-0.02211761102080345,0)" style="transform:matrix(1, 0, 0, 1, -0.0221176, 0);animation-play-state:paused" ></circle>
<circle cx="352.8347002963717" cy="290.16723314069776" r="161.00360590936202" fill="#91cbf0" transform="matrix(1,0,0,1,-0.0506916344165802,0)" style="transform:matrix(1, 0, 0, 1, -0.0506916, 0);animation-play-state:paused" ></circle>
<circle cx="513.8383062057337" cy="370.19085355936045" r="65.0058294838555" fill="#91cbf0" transform="matrix(1,0,0,1,-0.09182151407003403,0)" style="transform:matrix(1, 0, 0, 1, -0.0918215, 0);animation-play-state:paused" ></circle>
<circle cx="578.8441356895892" cy="370.1019966202411" r="84.51309266836046" fill="#91cbf0" transform="matrix(1,0,0,1,-0.14621874690055847,0)" style="transform:matrix(1, 0, 0, 1, -0.146219, 0);animation-play-state:paused" ></circle>
<circle cx="663.3572283579497" cy="371.4674962945663" r="130.64087675183654" fill="#91cbf0" transform="matrix(1,0,0,1,-0.21463677287101746,0)" style="transform:matrix(1, 0, 0, 1, -0.214637, 0);animation-play-state:paused" ></circle>
<circle cx="793.9981051097863" cy="396.9436941574838" r="156.1305916394418" fill="#91cbf0" transform="matrix(1,0,0,1,-0.29787129163742065,0)" style="transform:matrix(1, 0, 0, 1, -0.297871, 0);animation-play-state:paused" ></circle>
<circle cx="950.1286967492281" cy="381.55301045083513" r="72.176977030982" fill="#91cbf0" transform="matrix(1,0,0,1,-0.39675474166870117,0)" style="transform:matrix(1, 0, 0, 1, -0.396755, 0);animation-play-state:paused" ></circle>
<circle cx="1022.3056737802101" cy="370.9960668800516" r="80.28780888375564" fill="#91cbf0" transform="matrix(1,0,0,1,-0.5121511816978455,0)" style="transform:matrix(1, 0, 0, 1, -0.512151, 0);animation-play-state:paused" ></circle>
<circle cx="1102.5934826639657" cy="354.68059408491206" r="94.79142543101226" fill="#91cbf0" transform="matrix(1,0,0,1,-0.6449497938156128,0)" style="transform:matrix(1, 0, 0, 1, -0.64495, 0);animation-play-state:paused" ></circle>
<circle cx="1197.3849080949778" cy="320.4776738359805" r="129.32213483500666" fill="#91cbf0" transform="matrix(1,0,0,1,-0.7960463762283325,0)" style="transform:matrix(1, 0, 0, 1, -0.796046, 0);animation-play-state:paused" ></circle>
<circle cx="1326.7070429299845" cy="265.88737188959425" r="166.43084524992204" fill="#91cbf0" transform="matrix(1,0,0,1,-0.9663248062133789,0)" style="transform:matrix(1, 0, 0, 1, -0.966325, 0);animation-play-state:paused" ></circle>
<circle cx="1493.1378881799064" cy="237.24379506724114" r="153.99369923892706" fill="#91cbf0" transform="matrix(1,0,0,1,-1.1566318273544312,0)" style="transform:matrix(1, 0, 0, 1, -1.15663, 0);animation-play-state:paused" ></circle>
<circle cx="1647.1315874188335" cy="199.85521556829852" r="155.36640861431354" fill="#91cbf0" transform="matrix(1,0,0,1,-1.367733359336853,0)" style="transform:matrix(1, 0, 0, 1, -1.36773, 0);animation-play-state:paused" ></circle>
<circle cx="0" cy="341.0636798807577" r="144.1136000993686" fill="#b8d5f7" transform="matrix(1,0,0,1,0,0)" style="transform:matrix(1, 0, 0, 1, 0, 0);animation-play-state:paused" ></circle>
<circle cx="144.1136000993686" cy="442.34000150600974" r="72.86789172032017" fill="#b8d5f7" transform="matrix(1,0,0,1,-0.022117476910352707,0)" style="transform:matrix(1, 0, 0, 1, -0.0221175, 0);animation-play-state:paused" ></circle>
<circle cx="216.98149181968876" cy="455.67586983020544" r="66.73880149620915" fill="#b8d5f7" transform="matrix(1,0,0,1,-0.09182151407003403,0)" style="transform:matrix(1, 0, 0, 1, -0.0918215, 0);animation-play-state:paused" ></circle>
<circle cx="283.7202933158979" cy="461.3938517049696" r="67.9999762813737" fill="#b8d5f7" transform="matrix(1,0,0,1,-0.21463632583618164,0)" style="transform:matrix(1, 0, 0, 1, -0.214636, 0);animation-play-state:paused" ></circle>
<circle cx="351.72026959727157" cy="432.6155603990272" r="121.21087603727891" fill="#b8d5f7" transform="matrix(1,0,0,1,-0.39675408601760864,0)" style="transform:matrix(1, 0, 0, 1, -0.396754, 0);animation-play-state:paused" ></circle>
<circle cx="472.9311456345505" cy="475.6675005802496" r="78.3462043339706" fill="#b8d5f7" transform="matrix(1,0,0,1,-0.6449497938156128,0)" style="transform:matrix(1, 0, 0, 1, -0.64495, 0);animation-play-state:paused" ></circle>
<circle cx="551.2773499685211" cy="483.163202552894" r="82.99934882712293" fill="#b8d5f7" transform="matrix(1,0,0,1,-0.9663236737251282,0)" style="transform:matrix(1, 0, 0, 1, -0.966324, 0);animation-play-state:paused" ></circle>
<circle cx="634.276698795644" cy="481.2943579867495" r="132.5200451461464" fill="#b8d5f7" transform="matrix(1,0,0,1,-1.367732048034668,0)" style="transform:matrix(1, 0, 0, 1, -1.36773, 0);animation-play-state:paused" ></circle>
<circle cx="766.7967439417905" cy="509.7970190270136" r="88.2159732733138" fill="#b8d5f7" transform="matrix(1,0,0,1,-1.8546773195266724,0)" style="transform:matrix(1, 0, 0, 1, -1.85468, 0);animation-play-state:paused" ></circle>
<circle cx="855.0127172151043" cy="500.4114820134203" r="159.99985116895476" fill="#b8d5f7" transform="matrix(1,0,0,1,-2.429476737976074,0)" style="transform:matrix(1, 0, 0, 1, -2.42948, 0);animation-play-state:paused" ></circle>
<circle cx="1015.012568384059" cy="465.7938716341789" r="148.1538069106008" fill="#b8d5f7" transform="matrix(1,0,0,1,-3.0886471271514893,0)" style="transform:matrix(1, 0, 0, 1, -3.08865, 0);animation-play-state:paused" ></circle>
<circle cx="1163.1663752946597" cy="421.672712511451" r="168.4721160084019" fill="#b8d5f7" transform="matrix(1,0,0,1,-3.8199710845947266,0)" style="transform:matrix(1, 0, 0, 1, -3.81997, 0);animation-play-state:paused" ></circle>
<circle cx="1331.6384913030615" cy="428.2897340731463" r="106.97603039833835" fill="#b8d5f7" transform="matrix(1,0,0,1,-4.600751876831055,0)" style="transform:matrix(1, 0, 0, 1, -4.60075, 0);animation-play-state:paused" ></circle>
<circle cx="1438.6145217013998" cy="348.89015668327374" r="171.63622734514718" fill="#b8d5f7" transform="matrix(1,0,0,1,-5.399240970611572,0)" style="transform:matrix(1, 0, 0, 1, -5.39924, 0);animation-play-state:paused" ></circle>
<circle cx="1610.2507490465468" cy="383.0860185768139" r="107.31415430290328" fill="#b8d5f7" transform="matrix(1,0,0,1,-6.180026531219482,0)" style="transform:matrix(1, 0, 0, 1, -6.18003, 0);animation-play-state:paused" ></circle>
<circle cx="1717.56490334945" cy="413.021122052563" r="73.11021030467458" fill="#b8d5f7" transform="matrix(1,0,0,1,-6.911346912384033,0)" style="transform:matrix(1, 0, 0, 1, -6.91135, 0);animation-play-state:paused" ></circle>
<circle cx="0" cy="550.5653575398352" r="66.19553538347066" fill="#d7e1fb" transform="matrix(1,0,0,1,0,0)" style="transform:matrix(1, 0, 0, 1, 0, 0);animation-play-state:paused" ></circle>
<circle cx="66.19553538347066" cy="523.2585120613976" r="96.99185042704676" fill="#d7e1fb" transform="matrix(1,0,0,1,-0.05069143697619438,0)" style="transform:matrix(1, 0, 0, 1, -0.0506914, 0);animation-play-state:paused" ></circle>
<circle cx="163.1873858105174" cy="491.1836482344854" r="145.3941130831797" fill="#d7e1fb" transform="matrix(1,0,0,1,-0.21463680267333984,0)" style="transform:matrix(1, 0, 0, 1, -0.214637, 0);animation-play-state:paused" ></circle>
<circle cx="308.58149889369713" cy="574.1727166286727" r="75.82568269236187" fill="#d7e1fb" transform="matrix(1,0,0,1,-0.5121498107910156,0)" style="transform:matrix(1, 0, 0, 1, -0.51215, 0);animation-play-state:paused" ></circle>
<circle cx="384.407181586059" cy="564.559461529388" r="105.15812648181955" fill="#d7e1fb" transform="matrix(1,0,0,1,-0.9663238525390625,0)" style="transform:matrix(1, 0, 0, 1, -0.966324, 0);animation-play-state:paused" ></circle>
<circle cx="489.5653080678785" cy="597.1075158764908" r="70.84735937866378" fill="#d7e1fb" transform="matrix(1,0,0,1,-1.6002659797668457,0)" style="transform:matrix(1, 0, 0, 1, -1.60027, 0);animation-play-state:paused" ></circle>
<circle cx="560.4126674465423" cy="606.641798271686" r="65.2825018730993" fill="#d7e1fb" transform="matrix(1,0,0,1,-2.4294753074645996,0)" style="transform:matrix(1, 0, 0, 1, -2.42948, 0);animation-play-state:paused" ></circle>
<circle cx="625.6951693196415" cy="609.4196069641732" r="79.24857469940108" fill="#d7e1fb" transform="matrix(1,0,0,1,-3.4464573860168457,0)" style="transform:matrix(1, 0, 0, 1, -3.44646, 0);animation-play-state:paused" ></circle>
<circle cx="704.9437440190426" cy="610.8049911566164" r="136.52404820262643" fill="#d7e1fb" transform="matrix(1,0,0,1,-4.600754737854004,0)" style="transform:matrix(1, 0, 0, 1, -4.60075, 0);animation-play-state:paused" ></circle>
<circle cx="841.467792221669" cy="623.4093233553975" r="102.0658930136415" fill="#d7e1fb" transform="matrix(1,0,0,1,-5.793995380401611,0)" style="transform:matrix(1, 0, 0, 1, -5.794, 0);animation-play-state:paused" ></circle>
<circle cx="943.5336852353105" cy="611.6935829512347" r="83.9901088594384" fill="#d7e1fb" transform="matrix(1,0,0,1,-6.911347389221191,0)" style="transform:matrix(1, 0, 0, 1, -6.91135, 0);animation-play-state:paused" ></circle>
<circle cx="1027.5237940947488" cy="602.055218813303" r="81.19210155207031" fill="#d7e1fb" transform="matrix(1,0,0,1,-7.8688554763793945,0)" style="transform:matrix(1, 0, 0, 1, -7.86886, 0);animation-play-state:paused" ></circle>
<circle cx="1108.7158956468193" cy="581.3707508921628" r="104.31029904631446" fill="#d7e1fb" transform="matrix(1,0,0,1,-8.63226318359375,0)" style="transform:matrix(1, 0, 0, 1, -8.63226, 0);animation-play-state:paused" ></circle>
<circle cx="1213.0261946931337" cy="539.7490784956909" r="144.8749635603838" fill="#d7e1fb" transform="matrix(1,0,0,1,-9.203951835632324,0)" style="transform:matrix(1, 0, 0, 1, -9.20395, 0);animation-play-state:paused" ></circle>
<circle cx="1357.9011582535175" cy="511.9873947779205" r="140.37789023657544" fill="#d7e1fb" transform="matrix(1,0,0,1,-9.60324478149414,0)" style="transform:matrix(1, 0, 0, 1, -9.60324, 0);animation-play-state:paused" ></circle>
<circle cx="1498.279048490093" cy="464.76749798992523" r="157.11882336256292" fill="#d7e1fb" transform="matrix(1,0,0,1,-9.853780746459961,0)" style="transform:matrix(1, 0, 0, 1, -9.85378, 0);animation-play-state:paused" ></circle>
<circle cx="1655.397871852656" cy="410.51183326001245" r="170.4416466446933" fill="#d7e1fb" transform="matrix(1,0,0,1,-9.977882385253906,0)" style="transform:matrix(1, 0, 0, 1, -9.97788, 0);animation-play-state:paused" ></circle>
<circle cx="0" cy="614.8110115591644" r="109.32415703402971" fill="#efeffd" transform="matrix(1,0,0,1,0,0)" style="transform:matrix(1, 0, 0, 1, 0, 0);animation-play-state:paused" ></circle>
<circle cx="109.32415703402971" cy="638.689468084855" r="103.61102637883467" fill="#efeffd" transform="matrix(1,0,0,1,-0.09182096272706985,0)" style="transform:matrix(1, 0, 0, 1, -0.091821, 0);animation-play-state:paused" ></circle>
<circle cx="212.93518341286438" cy="652.1399824579986" r="106.65944783036603" fill="#efeffd" transform="matrix(1,0,0,1,-0.3967541754245758,0)" style="transform:matrix(1, 0, 0, 1, -0.396754, 0);animation-play-state:paused" ></circle>
<circle cx="319.5946312432304" cy="680.8267538232622" r="90.55518491962607" fill="#efeffd" transform="matrix(1,0,0,1,-0.9663218259811401,0)" style="transform:matrix(1, 0, 0, 1, -0.966322, 0);animation-play-state:paused" ></circle>
<circle cx="410.1498161628565" cy="666.8413336850274" r="135.63401813446" fill="#efeffd" transform="matrix(1,0,0,1,-1.8546746969223022,0)" style="transform:matrix(1, 0, 0, 1, -1.85467, 0);animation-play-state:paused" ></circle>
<circle cx="545.7838342973165" cy="701.0479121043772" r="118.36151598787383" fill="#efeffd" transform="matrix(1,0,0,1,-3.0886480808258057,0)" style="transform:matrix(1, 0, 0, 1, -3.08865, 0);animation-play-state:paused" ></circle>
<circle cx="664.1453502851904" cy="732.3013607140446" r="67.84508694621488" fill="#efeffd" transform="matrix(1,0,0,1,-4.600748538970947,0)" style="transform:matrix(1, 0, 0, 1, -4.60075, 0);animation-play-state:paused" ></circle>
<circle cx="731.9904372314053" cy="728.9463560584414" r="170.6187566680325" fill="#efeffd" transform="matrix(1,0,0,1,-6.180023193359375,0)" style="transform:matrix(1, 0, 0, 1, -6.18002, 0);animation-play-state:paused" ></circle>
<circle cx="902.6091938994377" cy="722.5012741694172" r="150.19272772589136" fill="#efeffd" transform="matrix(1,0,0,1,-7.570518970489502,0)" style="transform:matrix(1, 0, 0, 1, -7.57052, 0);animation-play-state:paused" ></circle>
<circle cx="1052.8019216253292" cy="689.1152559715534" r="148.8469159559245" fill="#efeffd" transform="matrix(1,0,0,1,-8.632262229919434,0)" style="transform:matrix(1, 0, 0, 1, -8.63226, 0);animation-play-state:paused" ></circle>
<circle cx="1201.6488375812537" cy="696.588549968581" r="81.55598952569648" fill="#efeffd" transform="matrix(1,0,0,1,-9.355048179626465,0)" style="transform:matrix(1, 0, 0, 1, -9.35505, 0);animation-play-state:paused" ></circle>
<circle cx="1283.2048271069502" cy="640.0517337888357" r="145.44881379072754" fill="#efeffd" transform="matrix(1,0,0,1,-9.785362243652344,0)" style="transform:matrix(1, 0, 0, 1, -9.78536, 0);animation-play-state:paused" ></circle>
<circle cx="1428.6536408976779" cy="583.8023554166431" r="171.27412903001417" fill="#efeffd" transform="matrix(1,0,0,1,-9.977882385253906,0)" style="transform:matrix(1, 0, 0, 1, -9.97788, 0);animation-play-state:paused" ></circle>
<circle cx="1599.927769927692" cy="544.4524291864639" r="167.34273228092334" fill="#efeffd" transform="matrix(1,0,0,1,-9.977882385253906,0)" style="transform:matrix(1, 0, 0, 1, -9.97788, 0);animation-play-state:paused" ></circle>
<circle cx="0" cy="762.6902752393997" r="82.75810396716687" fill="#ffffff" transform="matrix(1,0,0,1,0,0)" style="transform:matrix(1, 0, 0, 1, 0, 0);animation-play-state:paused" ></circle>
<circle cx="82.75810396716687" cy="789.2964265756051" r="67.5916412759452" fill="#ffffff" transform="matrix(1,0,0,1,-0.14621765911579132,0)" style="transform:matrix(1, 0, 0, 1, -0.146218, 0);animation-play-state:paused" ></circle>
<circle cx="150.34974524311207" cy="781.647841230732" r="82.49270173900042" fill="#ffffff" transform="matrix(1,0,0,1,-0.6449490785598755,0)" style="transform:matrix(1, 0, 0, 1, -0.644949, 0);animation-play-state:paused" ></circle>
<circle cx="232.8424469821125" cy="782.3410288571996" r="93.70759174899989" fill="#ffffff" transform="matrix(1,0,0,1,-1.600259780883789,0)" style="transform:matrix(1, 0, 0, 1, -1.60026, 0);animation-play-state:paused" ></circle>
<circle cx="326.5500387311124" cy="803.608307268311" r="82.32823122620768" fill="#ffffff" transform="matrix(1,0,0,1,-3.0886433124542236,0)" style="transform:matrix(1, 0, 0, 1, -3.08864, 0);animation-play-state:paused" ></circle>
<circle cx="408.8782699573201" cy="793.8869750701804" r="116.32703853663213" fill="#ffffff" transform="matrix(1,0,0,1,-4.999997138977051,0)" style="transform:matrix(1, 0, 0, 1, -5, 0);animation-play-state:paused" ></circle>
<circle cx="525.2053084939522" cy="824.6973220923427" r="90.82438979794203" fill="#ffffff" transform="matrix(1,0,0,1,-6.911341667175293,0)" style="transform:matrix(1, 0, 0, 1, -6.91134, 0);animation-play-state:paused" ></circle>
<circle cx="616.0296982918942" cy="818.5898337957657" r="158.3043806288858" fill="#ffffff" transform="matrix(1,0,0,1,-8.399728775024414,0)" style="transform:matrix(1, 0, 0, 1, -8.39973, 0);animation-play-state:paused" ></circle>
<circle cx="774.33407892078" cy="858.6857768240267" r="91.2582363865247" fill="#ffffff" transform="matrix(1,0,0,1,-9.355049133300781,0)" style="transform:matrix(1, 0, 0, 1, -9.35505, 0);animation-play-state:paused" ></circle>
<circle cx="865.5923153073047" cy="848.7654037146806" r="131.2597561213907" fill="#ffffff" transform="matrix(1,0,0,1,-9.853779792785645,0)" style="transform:matrix(1, 0, 0, 1, -9.85378, 0);animation-play-state:paused" ></circle>
<circle cx="996.8520714286954" cy="825.7902066644408" r="121.47390147472373" fill="#ffffff" transform="matrix(1,0,0,1,-10,0)" style="transform:matrix(1, 0, 0, 1, -10, 0);animation-play-state:paused" ></circle>
<circle cx="1118.3259729034191" cy="780.38501240934" r="169.80476131942615" fill="#ffffff" transform="matrix(1,0,0,1,-9.853781700134277,0)" style="transform:matrix(1, 0, 0, 1, -9.85378, 0);animation-play-state:paused" ></circle>
<circle cx="1288.1307342228454" cy="765.8543347010695" r="130.66362800776616" fill="#ffffff" transform="matrix(1,0,0,1,-9.355052947998047,0)" style="transform:matrix(1, 0, 0, 1, -9.35505, 0);animation-play-state:paused" ></circle>
<circle cx="1418.7943622306116" cy="739.324315884586" r="131.599527217343" fill="#ffffff" transform="matrix(1,0,0,1,-8.399736404418945,0)" style="transform:matrix(1, 0, 0, 1, -8.39974, 0);animation-play-state:paused" ></circle>
<circle cx="1550.3938894479545" cy="766.0510711959561" r="84.91359920733015" fill="#ffffff" transform="matrix(1,0,0,1,-6.911350727081299,0)" style="transform:matrix(1, 0, 0, 1, -6.91135, 0);animation-play-state:paused" ></circle>
<circle cx="1635.3074886552847" cy="788.5037281177794" r="58.44312450750611" fill="#ffffff" transform="matrix(1,0,0,1,-5.000009536743164,0)" style="transform:matrix(1, 0, 0, 1, -5.00001, 0);animation-play-state:paused" ></circle>
<circle cx="1693.7506131627908" cy="716.3892750823634" r="108.22869236950974" fill="#ffffff" transform="matrix(1,0,0,1,-3.088653087615967,0)" style="transform:matrix(1, 0, 0, 1, -3.08865, 0);animation-play-state:paused" ></circle></g></svg>